<svg width="80" height="80" viewBox="0 0 80 80" fill="none" xmlns="http://www.w3.org/2000/svg">
<g clip-path="url(#clip0_1_23)">
<mask id="mask0_1_23" style="mask-type:luminance" maskUnits="userSpaceOnUse" x="0" y="0" width="80" height="80">
<path d="M80 0H0V80H80V0Z" fill="white"/>
</mask>
<g mask="url(#mask0_1_23)">
<path d="M74.6534 53.3333H4.60761C2.12078 53.3333 0.152039 55.6522 0.152039 58.3188V62.3768C0.152039 65.0435 2.12078 67.2464 4.60761 67.2464H5.6438V68.4058C5.6438 74.7826 10.3066 79.8841 15.902 79.8841H63.359C69.058 79.8841 73.6172 74.6667 73.6172 68.4058V67.2464H74.6534C77.0365 67.2464 79.109 65.0435 79.109 62.2609V58.2029C79.109 55.6522 77.1402 53.3333 74.6534 53.3333ZM70.6122 68.4058C70.6122 72.8116 67.4001 76.4058 63.4626 76.4058H15.7984C11.8609 76.4058 8.64871 72.8116 8.64871 68.4058V67.2464H70.6122V68.4058ZM76.0004 62.2609C76.0004 63.0725 75.3787 63.7681 74.6534 63.7681H4.60761C3.88228 63.7681 3.26057 63.0725 3.26057 62.2609V58.2029C3.26057 57.5073 3.88228 56.8116 4.60761 56.8116H74.757C75.4823 56.8116 76.104 57.5073 76.104 58.3188V62.2609H76.0004Z" fill="#81B3D2"/>
<path d="M16.9382 43.942L22.5336 48.5797L28.2326 43.942L33.9316 48.5797L39.6306 43.942L45.226 48.5797L50.9249 43.942L56.6239 48.5797L62.3229 43.942L68.0219 48.5797L74.5499 43.1304L72.7883 40.3478L68.0219 44.1739L62.3229 39.5362L56.6239 44.1739L50.9249 39.5362L45.226 44.1739L39.6306 39.5362L33.9316 44.1739L28.2326 39.5362L22.5336 44.1739L16.9382 39.5362L11.2393 44.1739L6.47279 40.3478L4.60767 43.1304L11.2393 48.5797L16.9382 43.942Z" fill="#81B3D2"/>
<path d="M73.6171 36.058C73.6171 35.3623 73.7207 33.0435 73.6171 32.5797C72.8917 14.4928 57.9707 0 39.6304 0C21.29 0 6.26537 14.4928 5.54004 32.5797C5.54004 33.0435 5.54004 35.3623 5.54004 36.058H73.6171ZM39.6304 3.47826C56.2092 3.47826 69.8868 16.4638 70.5086 32.5797H8.64858C9.37391 16.4638 23.0515 3.47826 39.6304 3.47826Z" fill="#81B3D2"/>
<path d="M39.6304 19.7101C40.7749 19.7101 41.7028 18.672 41.7028 17.3913C41.7028 16.1106 40.7749 15.0724 39.6304 15.0724C38.4859 15.0724 37.558 16.1106 37.558 17.3913C37.558 18.672 38.4859 19.7101 39.6304 19.7101Z" fill="#81B3D2"/>
<path d="M31.341 14.029C32.4855 14.029 33.4134 12.9907 33.4134 11.7102C33.4134 10.4295 32.4855 9.3913 31.341 9.3913C30.1965 9.3913 29.2687 10.4295 29.2687 11.7102C29.2687 12.9907 30.1965 14.029 31.341 14.029Z" fill="#81B3D2"/>
<path d="M47.9199 14.029C49.0644 14.029 49.9922 12.9907 49.9922 11.7102C49.9922 10.4295 49.0644 9.3913 47.9199 9.3913C46.7754 9.3913 45.8475 10.4295 45.8475 11.7102C45.8475 12.9907 46.7754 14.029 47.9199 14.029Z" fill="#81B3D2"/>
</g>
</g>
<defs>
<clipPath id="clip0_1_23">
<rect width="80" height="80" fill="white"/>
</clipPath>
</defs>
</svg>
