<svg width="80" height="80" viewBox="0 0 80 80" fill="none" xmlns="http://www.w3.org/2000/svg">
<g clip-path="url(#clip0_1_15)">
<path d="M31.5629 71.5617H48.374V45.3699H31.5629V71.5617ZM45.327 68.3836H34.6099V48.548H45.2219V68.3836H45.327Z" fill="#81B3D2"/>
<path d="M76.8479 43.1781L79.0543 40.8767L68.6525 30.0274V0.438356H54.1529V14.9041L39.7583 0L0.567383 40.9863L2.77385 43.2877L10.9693 34.7397V76.1644H6.87156V79.3425H74.0111V76.1644H68.6525V34.6301L76.8479 43.1781ZM57.1999 3.72603H65.5004V26.8493L57.1999 18.1918V3.72603ZM65.6054 76.0548H14.1214V31.4521L39.7583 4.60274L65.5004 31.4521V76.0548H65.6054Z" fill="#81B3D2"/>
<path d="M31.8781 29.8082C31.8781 34.5206 35.5555 38.3562 39.9685 38.3562C44.4865 38.3562 48.1639 34.5206 48.1639 29.8082C48.1639 25.0959 44.4865 21.3699 39.9685 21.3699C35.4505 21.3699 31.8781 25.0959 31.8781 29.8082ZM39.9685 24.3288C42.8053 24.3288 45.222 26.7397 45.222 29.8082C45.222 32.7671 42.9104 35.2877 39.9685 35.2877C37.1316 35.2877 34.715 32.8767 34.715 29.8082C34.715 26.8493 37.1316 24.3288 39.9685 24.3288Z" fill="#81B3D2"/>
<path d="M21.4763 45.3699H18.3242V49.6438H21.4763V45.3699Z" fill="#81B3D2"/>
<path d="M27.6754 45.3699H24.5233V49.6438H27.6754V45.3699Z" fill="#81B3D2"/>
<path d="M21.4763 51.9452H18.3242V56.2192H21.4763V51.9452Z" fill="#81B3D2"/>
<path d="M27.6754 51.9452H24.5233V56.2192H27.6754V51.9452Z" fill="#81B3D2"/>
<path d="M54.9935 45.3699H51.8414V49.6438H54.9935V45.3699Z" fill="#81B3D2"/>
<path d="M61.2977 45.3699H58.1456V49.6438H61.2977V45.3699Z" fill="#81B3D2"/>
<path d="M54.9935 51.9452H51.8414V56.2192H54.9935V51.9452Z" fill="#81B3D2"/>
<path d="M61.2977 51.9452H58.1456V56.2192H61.2977V51.9452Z" fill="#81B3D2"/>
</g>
<defs>
<clipPath id="clip0_1_15">
<rect width="80" height="80" fill="white"/>
</clipPath>
</defs>
</svg>

